<svg width="1920" height="1080" fill="none" xmlns="http://www.w3.org/2000/svg"><g clip-path="url(#clip0_2261_1997)"><path fill="#F8F9FC" d="M0 0h1920v1080H0z"/><g opacity=".2" filter="url(#filter0_f_2261_1997)"><path d="M854.612-155.356a732.15 732.15 0 00407.918 25.676l485.96-108.681c39.24-8.777 80.17-6.2 118 7.428 199.46 71.847 181.34 359.689-25.55 405.959l-313.38 70.086a305.166 305.166 0 01-170.02-10.701l-107.08-38.575a696.733 696.733 0 00-388.183-24.434L372.099 281.029a311.3 311.3 0 01-173.441-10.918c-293.15-105.599-266.52-528.66 37.558-596.665a311.297 311.297 0 01173.44 10.917l444.956 160.281z" fill="#D9D9D9"/><path d="M854.612-155.356a732.15 732.15 0 00407.918 25.676l485.96-108.681c39.24-8.777 80.17-6.2 118 7.428 199.46 71.847 181.34 359.689-25.55 405.959l-313.38 70.086a305.166 305.166 0 01-170.02-10.701l-107.08-38.575a696.733 696.733 0 00-388.183-24.434L372.099 281.029a311.3 311.3 0 01-173.441-10.918c-293.15-105.599-266.52-528.66 37.558-596.665a311.297 311.297 0 01173.44 10.917l444.956 160.281z" fill="url(#paint0_linear_2261_1997)"/></g></g><defs><linearGradient id="paint0_linear_2261_1997" x1="3.521" y1="-194.919" x2="1868" y2="141.501" gradientUnits="userSpaceOnUse"><stop offset=".127" stop-color="#2BFFF4"/><stop offset=".75" stop-color="#FF74D3"/><stop offset="1" stop-color="#0052F5"/></linearGradient><clipPath id="clip0_2261_1997"><path fill="#fff" d="M0 0h1920v1080H0z"/></clipPath><filter id="filter0_f_2261_1997" x="-229.753" y="-556.642" width="2458.87" height="1067.76" filterUnits="userSpaceOnUse" color-interpolation-filters="sRGB"><feFlood flood-opacity="0" result="BackgroundImageFix"/><feBlend in="SourceGraphic" in2="BackgroundImageFix" result="shape"/><feGaussianBlur stdDeviation="111.292" result="effect1_foregroundBlur_2261_1997"/></filter></defs></svg>