<svg width="120" height="40" fill="none" xmlns="http://www.w3.org/2000/svg"><g clip-path="url(#clip0_23_22388)" fill="#fff"><path d="M59.969 3.542h3.068V15.71H59.97V3.542zm12.273-.001h-6.136v12.167h6.136v-3.041h-3.069V6.583h3.068v3.043h3.068v6.083h3.073V6.583h-6.136l-.004-3.042zM57.235 3.5h-3.068v3.042h-3.099V3.5H48v12.167h9.234L57.235 3.5zm-3.067 9.126h-3.099V9.583h3.099v3.043zM38.915 15.9a4.742 4.742 0 004.35-2.974 4.769 4.769 0 00-1.062-5.17 4.746 4.746 0 00-8.09 3.384 4.792 4.792 0 001.418 3.376c.9.893 2.118 1.39 3.384 1.384zm0-6.557a1.789 1.789 0 011.641 1.122A1.799 1.799 0 0139.24 12.9a1.789 1.789 0 01-1.834-.767 1.793 1.793 0 01-.301-.995 1.809 1.809 0 011.12-1.662c.22-.09.454-.135.691-.134zm-20.848 8.849h12.11v3.043h-12.11v-3.043zm10.657 15.211v-9.126H19.52v9.126h9.204zm-6.136-6.085h3.068v3.042h-3.067v-3.042zm3.069-11.608h3.068V6.563H19.52v3.042h6.137v6.103zm43.156 2.484h-2.707v6.081h1.798v-1.28h.899c1.893 0 2.859-1.078 2.859-2.402 0-1.323-.965-2.399-2.85-2.399zm.038 3.294h-.946v-1.783h.956a.888.888 0 01.914.897.893.893 0 01-.924.886zm5.986-3.293H73.04v6.08h5.064v-1.51h-3.266v-4.57zm6.475-.001l-2.48 6.081h1.837l.28-.788h2.573l.28.788h1.836l-2.48-6.08h-1.846zm.124 3.92l.728-2.053c.03-.08.055-.162.076-.244.019.083.044.165.075.244l.73 2.053h-1.609zm4.29-2.409h1.921v4.573h1.799v-4.573h1.922v-1.51h-5.642v1.51zm6.904 4.571h1.798v-2.333h2.565V20.45h-2.565v-.741h2.934v-1.514H92.63v6.08zm9.023-6.175a3.136 3.136 0 00-2.792 2.048 3.154 3.154 0 00.782 3.378 3.14 3.14 0 005.304-2.291 3.117 3.117 0 00-3.294-3.135zm0 4.673a1.417 1.417 0 01-1.338-.96 1.435 1.435 0 01-.072-.578 1.45 1.45 0 011.41-1.522 1.53 1.53 0 011.412 1.53 1.534 1.534 0 01-1.412 1.53zm10.285-2.177c0-1.323-.965-2.402-2.849-2.402h-2.707v6.08h1.799v-1.28h.738c.149 0 .297-.01.444-.027l.701 1.306h2.054l-1.146-1.811a2.252 2.252 0 00.966-1.866zm-2.83.891h-.931v-1.783h.937a.889.889 0 01.914.897.904.904 0 01-.275.639.892.892 0 01-.649.247h.004zm8.157-1.585c-.199.291-.521.788-.521.788s-.322-.498-.52-.788l-1.202-1.708h-1.533v6.08h1.798v-3.059s.304.479.473.714l.984 1.351.975-1.351c.17-.234.483-.732.483-.732v3.08H120v-6.084h-1.535l-1.2 1.709zm-69.614 1.331H59.97v3.042h3.068v-6.084H47.651v3.042zm-44.583 0h12.318V18.19H0v6.085h3.068v-3.042zM59.97 36.458H3.07v-3.042H0v6.083h63.037v-6.083H59.97v3.042zM79.912 6.583h3.069v9.126h-3.069V6.584zM90.756 15.9a4.757 4.757 0 004.6-5.72 4.762 4.762 0 00-3.746-3.71 4.74 4.74 0 00-4.86 2.033c-.52.781-.797 1.7-.797 2.638a4.792 4.792 0 001.418 3.376 4.77 4.77 0 003.384 1.384zm0-6.557a1.789 1.789 0 011.641 1.122A1.799 1.799 0 0191.08 12.9a1.788 1.788 0 01-1.833-.767 1.793 1.793 0 01-.301-.995 1.809 1.809 0 011.12-1.662 1.8 1.8 0 01.69-.134zm7.777-2.76h3.068v9.126h-3.068V6.584zm15.331 0v3.043h3.068v6.083h3.069V6.584h-6.137zm-3.069 6.085h-3.068V9.626h3.068V6.587h-3.068V3.542h3.068V.5h-6.136v15.211h6.136v-3.043z"/><path d="M34.82 26.355a4.703 4.703 0 00-.707 2.479 4.817 4.817 0 001.43 3.36 4.797 4.797 0 006.744 0 4.818 4.818 0 001.43-3.36 4.7 4.7 0 00-.708-2.479v-5.123h1.961V18.19H32.864v3.042h1.961l-.005 5.123zm4.098 4.274a1.788 1.788 0 01-1.642-1.122 1.8 1.8 0 01.401-1.95 1.79 1.79 0 012.912 1.969 1.806 1.806 0 01-1.675 1.107l.004-.004zm1.024-9.398v2.953a4.77 4.77 0 00-2.049 0v-2.95l2.05-.003z"/></g><defs><clipPath id="clip0_23_22388"><path fill="#fff" transform="translate(0 .5)" d="M0 0h120v39H0z"/></clipPath></defs></svg>