<svg width="120" height="40" viewBox="0 0 120 40" fill="none" xmlns="http://www.w3.org/2000/svg">
<g clip-path="url(#clip0_23_22388)">
<path d="M59.9688 3.54224H63.0372V15.7092H59.9688V3.54224Z" fill="white"/>
<path d="M72.2417 3.54126H66.1057V15.7082H72.2417V12.667H69.1732V6.58346H72.2408V9.62567H75.3093V15.7092H78.3824V6.58346H72.2464L72.2417 3.54126Z" fill="white"/>
<path d="M57.2352 3.5H54.1667V6.5422H51.0685V3.5H48V15.667H57.2343L57.2352 3.5ZM54.1677 12.6257H51.0694V9.58348H54.1677V12.6257Z" fill="white"/>
<path d="M38.9151 15.8996C39.8521 15.8893 40.7652 15.6014 41.5393 15.0722C42.3134 14.543 42.9141 13.7962 43.2655 12.9257C43.617 12.0552 43.7037 11.0999 43.5146 10.1802C43.3255 9.26044 42.8691 8.41731 42.2028 7.75693C41.5366 7.09655 40.6903 6.64843 39.7704 6.46899C38.8506 6.28954 37.8984 6.3868 37.0336 6.74851C36.1688 7.11021 35.4301 7.72019 34.9105 8.50168C34.3909 9.28317 34.1136 10.2012 34.1135 11.1403C34.1207 12.4094 34.6305 13.6237 35.5309 14.5162C36.4313 15.4087 37.6486 15.9063 38.9151 15.8996ZM38.9151 9.34296C39.2685 9.34683 39.613 9.45538 39.905 9.65497C40.197 9.85455 40.4236 10.1362 40.5563 10.4646C40.6889 10.7929 40.7217 11.1533 40.6504 11.5002C40.5792 11.8472 40.4071 12.1653 40.1559 12.4144C39.9046 12.6636 39.5854 12.8328 39.2385 12.9006C38.8915 12.9684 38.5323 12.9318 38.206 12.7955C37.8798 12.6592 37.601 12.4292 37.4049 12.1345C37.2087 11.8398 37.104 11.4936 37.1038 11.1394C37.105 10.9022 37.1528 10.6677 37.2445 10.449C37.3362 10.2304 37.4699 10.032 37.6381 9.86524C37.8063 9.69843 38.0057 9.56644 38.2248 9.47683C38.4439 9.38722 38.6784 9.34173 38.9151 9.34296Z" fill="white"/>
<path d="M18.0671 18.1924H30.1771V21.2346H18.0671V18.1924Z" fill="white"/>
<path d="M28.7245 33.4025V24.2768H19.52V33.4025H28.7245ZM22.5885 27.3181H25.656V30.3603H22.5885V27.3181Z" fill="white"/>
<path d="M25.657 15.7092H28.7254V6.5639H19.52V9.60611H25.657V15.7092Z" fill="white"/>
<path d="M68.8129 18.1943H66.1057V24.275H67.904V22.9956H68.8026C70.6958 22.9956 71.6615 21.9168 71.6615 20.5935C71.6615 19.2702 70.6968 18.1943 68.8129 18.1943ZM68.851 21.4884H67.9049V19.7051H68.8613C68.9805 19.7019 69.0992 19.7228 69.2103 19.7665C69.3213 19.8101 69.4225 19.8757 69.5078 19.9594C69.593 20.043 69.6606 20.1429 69.7066 20.2533C69.7526 20.3636 69.7759 20.482 69.7753 20.6016C69.7747 20.7212 69.7501 20.8394 69.703 20.9492C69.6559 21.059 69.5872 21.1583 69.5011 21.241C69.4149 21.3237 69.3131 21.3883 69.2016 21.4308C69.0901 21.4733 68.9703 21.4929 68.851 21.4884Z" fill="white"/>
<path d="M74.8371 18.1952H73.0388V24.2759H78.1029V22.765H74.8371V18.1952Z" fill="white"/>
<path d="M81.3122 18.1943L78.8323 24.275H80.6687L80.9481 23.4873H83.5221L83.8014 24.275H85.6379L83.1579 18.1943H81.3122ZM81.4361 22.1137L82.1643 20.0607C82.1936 19.9808 82.2188 19.8995 82.2397 19.8171C82.2586 19.9001 82.2838 19.9815 82.3152 20.0607L83.0443 22.1137H81.4361Z" fill="white"/>
<path d="M85.7263 19.7051H87.6475V24.2777H89.4457V19.7051H91.3678V18.1952H85.7263V19.7051Z" fill="white"/>
<path d="M92.6296 24.2759H94.4279V21.9429H96.9925V20.4498H94.4279V19.7088H97.3623V18.1952H92.6296V24.2759Z" fill="white"/>
<path d="M101.653 18.101C101.039 18.1309 100.447 18.341 99.9505 18.7052C99.4542 19.0693 99.0755 19.5715 98.8614 20.1494C98.6473 20.7273 98.6073 21.3555 98.7462 21.9559C98.8852 22.5564 99.197 23.1028 99.6431 23.5273C100.089 23.9518 100.65 24.2357 101.255 24.3438C101.861 24.4519 102.485 24.3794 103.05 24.1353C103.615 23.8913 104.096 23.4864 104.433 22.9709C104.77 22.4554 104.949 21.852 104.947 21.2356C104.95 20.8089 104.866 20.3862 104.699 19.9935C104.532 19.6009 104.287 19.2467 103.978 18.9529C103.669 18.6591 103.304 18.4319 102.904 18.2854C102.504 18.1388 102.078 18.0761 101.653 18.101ZM101.653 22.7744C101.458 22.7738 101.264 22.7325 101.085 22.6533C100.906 22.5741 100.745 22.4586 100.613 22.314C100.48 22.1695 100.379 21.9991 100.315 21.8135C100.252 21.6279 100.227 21.4311 100.243 21.2356C100.233 21.0422 100.262 20.8487 100.328 20.6667C100.394 20.4847 100.496 20.3178 100.627 20.1759C100.759 20.034 100.917 19.9201 101.094 19.8408C101.27 19.7615 101.46 19.7186 101.653 19.7144C102.038 19.7445 102.396 19.9187 102.658 20.2023C102.92 20.4858 103.065 20.8578 103.065 21.244C103.065 21.6301 102.92 22.0021 102.658 22.2856C102.396 22.5692 102.038 22.7443 101.653 22.7744Z" fill="white"/>
<path d="M111.938 20.5972C111.938 19.274 110.973 18.1952 109.089 18.1952H106.382V24.2759H108.181V22.9955H108.919C109.068 22.9943 109.216 22.985 109.363 22.9675L110.064 24.274H112.118L110.972 22.4627C111.272 22.2536 111.517 21.9745 111.685 21.6495C111.853 21.3245 111.94 20.9634 111.938 20.5972ZM109.108 21.4884H108.177V19.7051H109.114C109.233 19.7019 109.352 19.7228 109.463 19.7665C109.574 19.8101 109.675 19.8757 109.76 19.9594C109.845 20.043 109.913 20.1429 109.959 20.2532C110.005 20.3636 110.028 20.482 110.028 20.6016C110.027 20.7211 110.002 20.8393 109.955 20.9492C109.908 21.059 109.84 21.1582 109.753 21.241C109.667 21.3237 109.565 21.3882 109.454 21.4307C109.342 21.4733 109.224 21.4929 109.104 21.4884H109.108Z" fill="white"/>
<path d="M117.265 19.903C117.066 20.1941 116.744 20.6906 116.744 20.6906C116.744 20.6906 116.422 20.1932 116.224 19.903L115.022 18.1952H113.489V24.2759H115.287V21.216C115.287 21.216 115.591 21.6947 115.76 21.9298L116.744 23.2811L117.719 21.9298C117.889 21.6956 118.202 21.1982 118.202 21.1982V24.2778H120V18.1943H118.465L117.265 19.903Z" fill="white"/>
<path d="M47.6511 21.2337H59.9688V24.2759H63.0372V18.1915H47.6511V21.2337Z" fill="white"/>
<path d="M3.06848 21.2337H15.3861V18.1915H0V24.2759H3.06848V21.2337Z" fill="white"/>
<path d="M59.9697 36.4578H3.07034V33.4156H0V39.4991H63.0373V33.4165H59.9688L59.9697 36.4578Z" fill="white"/>
<path d="M79.9124 6.5835H82.9808V15.7092H79.9124V6.5835Z" fill="white"/>
<path d="M90.7559 15.8996C91.6929 15.8893 92.606 15.6014 93.3801 15.0722C94.1543 14.543 94.7549 13.7962 95.1064 12.9257C95.4579 12.0552 95.5445 11.0999 95.3554 10.1802C95.1663 9.26044 94.7099 8.41731 94.0436 7.75693C93.3774 7.09655 92.5311 6.64843 91.6113 6.46899C90.6914 6.28954 89.7392 6.3868 88.8744 6.74851C88.0096 7.11021 87.2709 7.72019 86.7513 8.50168C86.2317 9.28317 85.9544 10.2012 85.9543 11.1403C85.9615 12.4094 86.4713 13.6237 87.3717 14.5162C88.2721 15.4087 89.4894 15.9063 90.7559 15.8996ZM90.7559 9.34296C91.1093 9.34683 91.4538 9.45538 91.7458 9.65497C92.0379 9.85455 92.2645 10.1362 92.3971 10.4646C92.5298 10.7929 92.5625 11.1533 92.4913 11.5002C92.42 11.8472 92.2479 12.1653 91.9967 12.4144C91.7454 12.6636 91.4262 12.8328 91.0793 12.9006C90.7323 12.9684 90.3731 12.9318 90.0469 12.7955C89.7206 12.6592 89.4418 12.4292 89.2457 12.1345C89.0496 11.8398 88.9448 11.4936 88.9446 11.1394C88.9458 10.9022 88.9936 10.6677 89.0853 10.449C89.177 10.2304 89.3108 10.032 89.4789 9.86524C89.6471 9.69843 89.8465 9.56644 90.0656 9.47683C90.2847 9.38722 90.5192 9.34173 90.7559 9.34296Z" fill="white"/>
<path d="M98.5327 6.5835H101.601V15.7092H98.5327V6.5835Z" fill="white"/>
<path d="M113.864 6.5835V9.62571H116.932V15.7092H120.001V6.5835H113.864Z" fill="white"/>
<path d="M110.795 12.6679H107.727V9.62569H110.795V6.58722H107.727V3.54221H110.795V0.5H104.659V15.711H110.795V12.6679Z" fill="white"/>
<path d="M34.8203 26.355C34.3583 27.0989 34.1131 27.9574 34.1126 28.8336C34.1301 30.0982 34.6438 31.305 35.5424 32.1931C36.4411 33.0812 37.6525 33.579 38.9146 33.579C40.1767 33.579 41.3881 33.0812 42.2867 32.1931C43.1853 31.305 43.699 30.0982 43.7166 28.8336C43.7162 27.9574 43.471 27.0988 43.0088 26.355V21.2318H44.97V18.1896H32.8638V21.2318H34.825L34.8203 26.355ZM38.9178 30.629C38.5643 30.6252 38.2198 30.5166 37.9278 30.317C37.6357 30.1173 37.4091 29.8356 37.2765 29.5072C37.1439 29.1788 37.1112 28.8184 37.1825 28.4714C37.2538 28.1245 37.426 27.8064 37.6773 27.5572C37.9287 27.3081 38.2479 27.139 38.595 27.0713C38.942 27.0036 39.3012 27.0403 39.6275 27.1767C39.9537 27.3132 40.2324 27.5433 40.4285 27.8381C40.6245 28.133 40.7291 28.4793 40.7291 28.8336C40.7284 29.0713 40.6808 29.3065 40.5891 29.5258C40.4974 29.745 40.3633 29.9439 40.1947 30.1111C40.026 30.2783 39.8261 30.4104 39.6063 30.5C39.3866 30.5895 39.1513 30.6346 38.9141 30.6328L38.9178 30.629ZM39.9422 21.2308V24.1844C39.2673 24.036 38.5683 24.036 37.8934 24.1844V21.2346L39.9422 21.2308Z" fill="white"/>
</g>
<defs>
<clipPath id="clip0_23_22388">
<rect width="120" height="39" fill="white" transform="translate(0 0.5)"/>
</clipPath>
</defs>
</svg>
